<mxfile host="app.diagrams.net" modified="2023-06-12T14:02:27.328Z" agent="Mozilla/5.0 (Macintosh; Intel Mac OS X 10_15_7) AppleWebKit/537.36 (KHTML, like Gecko) Chrome/114.0.0.0 Safari/537.36" etag="tRpzCRFaZCVHJ-pPH8C9" version="21.3.4" type="github">
  <diagram name="Page-1" id="uuv1JCdSD4vG6qBPCOaW">
    <mxGraphModel dx="709" dy="448" grid="1" gridSize="10" guides="1" tooltips="1" connect="1" arrows="1" fold="1" page="1" pageScale="1" pageWidth="827" pageHeight="1169" background="#FFFFFF" math="0" shadow="0">
      <root>
        <mxCell id="0" />
        <mxCell id="1" parent="0" />
        <mxCell id="Wb6FI_CkjGLoCnVnhWsN-4" value="Dominos&lt;br&gt;DB Over the Cloud" style="whiteSpace=wrap;html=1;aspect=fixed;labelBackgroundColor=none;fillColor=#F2CC8F;strokeColor=#E07A5F;fontColor=#393C56;" parent="1" vertex="1">
          <mxGeometry x="30" y="160" width="80" height="80" as="geometry" />
        </mxCell>
        <mxCell id="Wb6FI_CkjGLoCnVnhWsN-5" value="Target Server/DB" style="whiteSpace=wrap;html=1;aspect=fixed;labelBackgroundColor=none;fillColor=#F2CC8F;strokeColor=#E07A5F;fontColor=#393C56;" parent="1" vertex="1">
          <mxGeometry x="570" y="160" width="80" height="80" as="geometry" />
        </mxCell>
        <mxCell id="Wb6FI_CkjGLoCnVnhWsN-6" value="Deloitte&lt;br&gt;&lt;br&gt;1. Data Engineers : To fetch the data from source, cleanse the data, transform if required and Load into Target DB" style="rounded=0;whiteSpace=wrap;html=1;labelBackgroundColor=none;fillColor=#F2CC8F;strokeColor=#E07A5F;fontColor=#393C56;" parent="1" vertex="1">
          <mxGeometry x="260" y="20" width="190" height="120" as="geometry" />
        </mxCell>
        <mxCell id="Wb6FI_CkjGLoCnVnhWsN-7" value="Source DB" style="whiteSpace=wrap;html=1;aspect=fixed;labelBackgroundColor=none;fillColor=#F2CC8F;strokeColor=#E07A5F;fontColor=#393C56;" parent="1" vertex="1">
          <mxGeometry x="30" y="350" width="80" height="80" as="geometry" />
        </mxCell>
        <mxCell id="Wb6FI_CkjGLoCnVnhWsN-8" value="load.py&lt;br&gt;&lt;br&gt;Loading final data into PostgreSQL" style="whiteSpace=wrap;html=1;aspect=fixed;labelBackgroundColor=none;fillColor=#F2CC8F;strokeColor=#E07A5F;fontColor=#393C56;" parent="1" vertex="1">
          <mxGeometry x="620" y="350" width="80" height="80" as="geometry" />
        </mxCell>
        <mxCell id="Wb6FI_CkjGLoCnVnhWsN-9" value="transformation.py" style="rounded=0;whiteSpace=wrap;html=1;labelBackgroundColor=none;fillColor=#F2CC8F;strokeColor=#E07A5F;fontColor=#393C56;" parent="1" vertex="1">
          <mxGeometry x="470" y="360" width="120" height="60" as="geometry" />
        </mxCell>
        <mxCell id="Wb6FI_CkjGLoCnVnhWsN-10" value="Cleaning.py" style="rounded=0;whiteSpace=wrap;html=1;labelBackgroundColor=none;fillColor=#F2CC8F;strokeColor=#E07A5F;fontColor=#393C56;" parent="1" vertex="1">
          <mxGeometry x="320" y="360" width="120" height="60" as="geometry" />
        </mxCell>
        <mxCell id="Wb6FI_CkjGLoCnVnhWsN-11" value="1. fetch_dominos_data.py&lt;br&gt;&lt;br&gt;Fetching data from multiple Dominos DB directly into Deloitte Storage" style="rounded=0;whiteSpace=wrap;html=1;labelBackgroundColor=none;fillColor=#F2CC8F;strokeColor=#E07A5F;fontColor=#393C56;" parent="1" vertex="1">
          <mxGeometry x="140" y="345" width="150" height="90" as="geometry" />
        </mxCell>
        <mxCell id="tcyWV4K058aYx-CU-Wdj-4" value="" style="html=1;shadow=0;dashed=0;align=center;verticalAlign=middle;shape=mxgraph.arrows2.arrow;dy=0.67;dx=20;notch=0;" parent="1" vertex="1">
          <mxGeometry x="110" y="380" width="30" height="20" as="geometry" />
        </mxCell>
        <mxCell id="tcyWV4K058aYx-CU-Wdj-5" value="" style="html=1;shadow=0;dashed=0;align=center;verticalAlign=middle;shape=mxgraph.arrows2.arrow;dy=0.67;dx=20;notch=0;" parent="1" vertex="1">
          <mxGeometry x="290" y="380" width="30" height="20" as="geometry" />
        </mxCell>
        <mxCell id="tcyWV4K058aYx-CU-Wdj-6" value="" style="html=1;shadow=0;dashed=0;align=center;verticalAlign=middle;shape=mxgraph.arrows2.arrow;dy=0.67;dx=20;notch=0;" parent="1" vertex="1">
          <mxGeometry x="440" y="380" width="30" height="20" as="geometry" />
        </mxCell>
        <mxCell id="tcyWV4K058aYx-CU-Wdj-9" style="edgeStyle=orthogonalEdgeStyle;rounded=0;orthogonalLoop=1;jettySize=auto;html=1;exitX=0;exitY=0;exitDx=10;exitDy=6.7;exitPerimeter=0;" parent="1" source="tcyWV4K058aYx-CU-Wdj-7" edge="1">
          <mxGeometry relative="1" as="geometry">
            <mxPoint x="600" y="387" as="targetPoint" />
          </mxGeometry>
        </mxCell>
        <mxCell id="tcyWV4K058aYx-CU-Wdj-7" value="" style="html=1;shadow=0;dashed=0;align=center;verticalAlign=middle;shape=mxgraph.arrows2.arrow;dy=0.67;dx=20;notch=0;" parent="1" vertex="1">
          <mxGeometry x="590" y="380" width="30" height="20" as="geometry" />
        </mxCell>
        <mxCell id="tcyWV4K058aYx-CU-Wdj-8" style="edgeStyle=orthogonalEdgeStyle;rounded=0;orthogonalLoop=1;jettySize=auto;html=1;exitX=0;exitY=0;exitDx=10;exitDy=6.7;exitPerimeter=0;entryX=0;entryY=0.5;entryDx=0;entryDy=0;entryPerimeter=0;" parent="1" source="tcyWV4K058aYx-CU-Wdj-6" target="tcyWV4K058aYx-CU-Wdj-6" edge="1">
          <mxGeometry relative="1" as="geometry" />
        </mxCell>
        <mxCell id="s6cflfkFCMhaViOV_iGT-1" value="&lt;font color=&quot;#000000&quot;&gt;Source Systems (Files/DB Table)&lt;/font&gt;" style="whiteSpace=wrap;html=1;aspect=fixed;fillColor=#fad7ac;strokeColor=#b46504;" parent="1" vertex="1">
          <mxGeometry x="60" y="530" width="80" height="80" as="geometry" />
        </mxCell>
      </root>
    </mxGraphModel>
  </diagram>
</mxfile>
